<svg width="24" height="20" viewBox="0 0 24 20" fill="none" xmlns="http://www.w3.org/2000/svg">
<path d="M18.1668 11.6874C17.4951 11.5699 16.9637 11.8234 16.4932 12.0448C16.0114 12.2729 15.0951 12.877 14.57 12.7224C11.8811 11.8226 9.35213 9.90972 8.25739 7.71553C8.06444 7.27956 8.80424 6.53014 9.08283 6.13388C9.35316 5.7503 9.65858 5.31434 9.51928 4.76431C9.3934 4.27005 7.76522 2.58617 7.18947 2.1257C6.80977 1.82154 6.42078 1.65425 6.02147 1.62721C4.5202 1.57483 2.84352 3.20294 2.54945 3.59244C1.81274 4.42297 1.81687 5.52809 2.56183 6.8681C4.35717 10.4674 11.1475 15.8992 15.5925 17.4132C16.4128 17.725 17.1629 17.8813 17.8366 17.8813C18.496 17.8813 19.0831 17.7318 19.5876 17.4352C19.9684 17.2569 22.0536 15.8265 21.9989 14.5735C21.9659 14.2542 21.7606 13.9348 21.3912 13.6256C20.8289 13.1533 18.7704 11.7905 18.1668 11.6874Z" fill="white"/>
</svg>
